<svg
  class="group-10"
  width="1600"
  height="968"
  viewBox="0 0 1600 968"
  fill="none"
  xmlns="http://www.w3.org/2000/svg"
>
  <g opacity="0.5">
    <path opacity="0.2" d="M1011.81 1L-485 729.783" stroke="black" />
    <path opacity="0.2" d="M1099.86 43.8696L-396.952 772.652" stroke="black" />
    <path opacity="0.2" d="M1187.9 86.7391L-308.904 815.522" stroke="black" />
    <path opacity="0.2" d="M1275.95 129.609L-220.857 858.391" stroke="black" />
    <path opacity="0.2" d="M1364 172.478L-132.81 901.261" stroke="black" />
    <path opacity="0.2" d="M1452.04 215.348L-44.7627 944.131" stroke="black" />
    <path opacity="0.2" d="M1540.09 258.217L43.2845 987" stroke="black" />
    <path opacity="0.2" d="M1628.14 301.087L131.333 1029.87" stroke="black" />
    <path opacity="0.2" d="M1716.19 343.957L219.381 1072.74" stroke="black" />
    <path opacity="0.2" d="M1804.23 386.826L307.427 1115.61" stroke="black" />
    <path opacity="0.2" d="M1892.28 429.696L395.475 1158.48" stroke="black" />
    <path opacity="0.2" d="M1980.33 472.565L483.522 1201.35" stroke="black" />
    <path opacity="0.2" d="M2068.38 515.435L571.57 1244.22" stroke="black" />
    <path opacity="0.2" d="M2156.43 558.304L659.618 1287.09" stroke="black" />
    <path opacity="0.2" d="M2244.47 601.174L747.666 1329.96" stroke="black" />
    <path opacity="0.2" d="M2332.52 644.044L835.713 1372.83" stroke="black" />
    <path opacity="0.2" d="M2420.57 686.913L923.76 1415.7" stroke="black" />
    <path opacity="0.2" d="M2508.61 729.783L1011.81 1458.57" stroke="black" />
    <path opacity="0.2" d="M835.712 86.7391L2332.52 815.522" stroke="black" />
    <path opacity="0.2" d="M747.665 129.609L2244.47 858.391" stroke="black" />
    <path opacity="0.2" d="M659.618 172.478L2156.43 901.261" stroke="black" />
    <path opacity="0.2" d="M571.57 215.348L2068.38 944.131" stroke="black" />
    <path opacity="0.2" d="M483.523 258.217L1980.33 987" stroke="black" />
    <path opacity="0.2" d="M395.475 301.087L1892.28 1029.87" stroke="black" />
    <path opacity="0.2" d="M307.428 343.957L1804.24 1072.74" stroke="black" />
    <path opacity="0.2" d="M219.397 386.826L1716.2 1115.61" stroke="black" />
    <path opacity="0.2" d="M131.35 429.696L1628.16 1158.48" stroke="black" />
    <path opacity="0.2" d="M43.3027 472.565L1540.11 1201.35" stroke="black" />
    <path opacity="0.2" d="M-44.7449 515.435L1452.06 1244.22" stroke="black" />
    <path opacity="0.2" d="M-132.792 558.304L1364.02 1287.09" stroke="black" />
    <path opacity="0.2" d="M-220.84 601.174L1275.97 1329.96" stroke="black" />
    <path opacity="0.2" d="M-308.887 644.044L1187.92 1372.83" stroke="black" />
  </g>
</svg>
